<svg xmlns="http://www.w3.org/2000/svg" viewBox="0 0 500 500"><g id="freepik--background-complete--inject-2"><rect x="75.71" y="44.01" width="133.02" height="203.96" style="fill:#dbdbdb"></rect><rect x="82.96" y="52.18" width="56.17" height="90.72" style="fill:#fff"></rect><rect x="145.31" y="52.18" width="56.17" height="90.72" style="fill:#fff"></rect><rect x="82.96" y="149.08" width="56.17" height="90.72" style="fill:#fff"></rect><rect x="145.31" y="149.08" width="56.17" height="90.72" style="fill:#fff"></rect><rect x="75.71" y="44.01" width="31.51" height="291.8" style="fill:#ebebeb"></rect><polygon points="101.24 57.88 101.48 89.43 101.57 120.98 101.74 184.08 101.57 247.18 101.49 278.73 101.24 310.28 101 278.73 100.91 247.18 100.74 184.08 100.91 120.98 101 89.43 101.24 57.88" style="fill:#fff"></polygon><polygon points="86.78 65.2 87.02 93.37 87.16 121.54 87.27 177.88 87.16 234.23 87.02 262.4 86.78 290.57 86.53 262.4 86.39 234.23 86.28 177.88 86.39 121.54 86.53 93.37 86.78 65.2" style="fill:#fff"></polygon><polygon points="94.01 71.85 94.25 104.84 94.34 137.82 94.51 203.8 94.34 269.77 94.25 302.76 94.01 335.74 93.76 302.76 93.68 269.77 93.51 203.8 93.68 137.82 93.77 104.84 94.01 71.85" style="fill:#fff"></polygon><polygon points="81.39 59.55 81.64 94.07 81.73 128.59 81.89 197.64 81.73 266.69 81.64 301.22 81.39 335.74 81.15 301.22 81.06 266.69 80.9 197.64 81.06 128.59 81.15 94.07 81.39 59.55" style="fill:#fff"></polygon><rect x="177.22" y="44.01" width="31.51" height="291.8" transform="translate(385.95 379.82) rotate(180)" style="fill:#ebebeb"></rect><polygon points="183.19 57.88 183.44 89.43 183.53 120.98 183.69 184.08 183.53 247.18 183.44 278.73 183.19 310.28 182.95 278.73 182.86 247.18 182.69 184.08 182.86 120.98 182.95 89.43 183.19 57.88" style="fill:#fff"></polygon><polygon points="197.66 65.2 197.9 93.37 198.04 121.54 198.16 177.88 198.05 234.23 197.91 262.4 197.66 290.57 197.42 262.4 197.28 234.23 197.16 177.88 197.28 121.54 197.42 93.37 197.66 65.2" style="fill:#fff"></polygon><polygon points="190.43 71.85 190.67 104.84 190.76 137.82 190.93 203.8 190.76 269.77 190.67 302.76 190.43 335.74 190.18 302.76 190.09 269.77 189.93 203.8 190.1 137.82 190.19 104.84 190.43 71.85" style="fill:#fff"></polygon><polygon points="203.04 59.55 203.28 94.07 203.37 128.59 203.54 197.64 203.37 266.69 203.29 301.22 203.04 335.74 202.8 301.22 202.71 266.69 202.54 197.64 202.71 128.59 202.8 94.07 203.04 59.55" style="fill:#fff"></polygon><circle cx="319.49" cy="97.04" r="53.02" transform="translate(24.96 254.34) rotate(-45)" style="fill:#ebebeb"></circle><path d="M335.64,147.55A53,53,0,1,1,335,46.36a46,46,0,1,0,22.23,13.47,53,53,0,0,1-21.63,87.72Z" style="fill:#dbdbdb;opacity:0.5"></path><path d="M299.29,92.49a7.47,7.47,0,1,1-9.38-4.83A7.47,7.47,0,0,1,299.29,92.49Z" style="fill:#c7c7c7"></path><path d="M347.52,77.07a7.47,7.47,0,1,1-9.38-4.84A7.46,7.46,0,0,1,347.52,77.07Z" style="fill:#c7c7c7"></path><path d="M326.32,81.47a11.25,11.25,0,1,1-21.43,6.85Z" style="fill:#c7c7c7"></path><path d="M326.1,88.94a11.25,11.25,0,0,1-16.7,5.34,13.47,13.47,0,0,1,16.7-5.34Z" style="fill:#dbdbdb"></path><circle cx="404.79" cy="201.97" r="38.19" transform="translate(112.83 547.53) rotate(-76.32)" style="fill:#ebebeb"></circle><path d="M395.1,238.91a38.19,38.19,0,1,1,38.73-61.75,33.13,33.13,0,1,0,8.31,16.78,38.21,38.21,0,0,1-47,45Z" style="fill:#dbdbdb;opacity:0.5"></path><path d="M429.55,200.65a5.37,5.37,0,1,1-3.84-6.56A5.37,5.37,0,0,1,429.55,200.65Z" style="fill:#c7c7c7"></path><path d="M394.27,191.4a5.38,5.38,0,1,1-3.83-6.56A5.37,5.37,0,0,1,394.27,191.4Z" style="fill:#c7c7c7"></path><path d="M397.9,189.94a12,12,0,0,0,1.9,6.54,9.26,9.26,0,0,0,5.35,3.53,9,9,0,0,0,6.39-.35,13.3,13.3,0,0,0,5.11-4.56,10.34,10.34,0,0,1-4.45,5.8,9,9,0,0,1-3.68,1.22,11,11,0,0,1-3.85-.38,11.77,11.77,0,0,1-3.48-1.63,8.85,8.85,0,0,1-2.58-2.9A9.7,9.7,0,0,1,397.9,189.94Z" style="fill:#c7c7c7"></path><rect x="342.28" y="275.06" width="88.24" height="122.11" style="fill:#ebebeb"></rect><rect x="338" y="270.53" width="96.79" height="4.53" style="fill:#dbdbdb"></rect><rect x="434.79" y="270.53" width="30.44" height="4.53" style="fill:#ebebeb"></rect><rect x="430.52" y="275.06" width="29.9" height="122.11" style="fill:#dbdbdb"></rect><path d="M421,331.59H351.76V292.43H421Zm-69-.25h68.77V292.68H352Z" style="fill:#c7c7c7"></path><rect x="376.73" y="303.88" width="13.48" height="7.75" style="fill:#c7c7c7"></rect><path d="M394.32,311.17H380.59v-6.83h13.73Zm-13.48-.25h13.23v-6.33H380.84Z" style="fill:#c7c7c7"></path><path d="M421,380.75H351.76V341.59H421Zm-69-.25h68.77V341.84H352Z" style="fill:#c7c7c7"></path><rect x="376.73" y="353.04" width="13.48" height="7.75" style="fill:#c7c7c7"></rect><path d="M394.32,360.33H380.59V353.5h13.73Zm-13.48-.25h13.23v-6.33H380.84Z" style="fill:#c7c7c7"></path><path d="M65.21,239.56l-13.13.27-6.66.12c-2.22,0-4.46,0-6.69.05h-.45v-.44l-.05-11.19v-.51h.5l13.24.06c4.41,0,8.82.11,13.24.16h.27v.27c0,1.89-.09,3.78-.13,5.65Zm0,0-.14-5.66c0-1.86-.12-3.7-.14-5.53l.28.27c-4.42.05-8.83.16-13.24.16l-13.24.07.5-.5-.06,11.19-.44-.45c2.18,0,4.35,0,6.54,0l6.58.12Z" style="fill:#ebebeb"></path><path d="M50.44,253.67l-13.13.27-6.66.12c-2.23,0-4.46,0-6.69.05h-.45v-.44l-.05-11.19V242H24L37.2,242c4.41,0,8.82.11,13.24.16h.27v.27c0,1.89-.09,3.78-.13,5.65Zm0,0L50.29,248c0-1.86-.11-3.7-.13-5.53l.28.27c-4.42.05-8.83.16-13.24.16L24,243l.49-.49-.05,11.19-.44-.45c2.18,0,4.35,0,6.54.05l6.58.12Z" style="fill:#ebebeb"></path><path d="M461.27,253.67l-13.12.27-6.66.12c-2.23,0-4.47,0-6.7.05h-.44v-.44l-.06-11.19V242h.5L448,242c4.42,0,8.83.11,13.24.16h.28v.27c0,1.89-.09,3.78-.13,5.65Zm0,0-.14-5.66c0-1.86-.11-3.7-.13-5.53l.27.27c-4.41.05-8.82.16-13.24.16l-13.24.06.5-.49-.05,11.19-.45-.45c2.18,0,4.36,0,6.55.05l6.58.12Z" style="fill:#ebebeb"></path><path d="M446.5,55.2l-13.12.28-6.66.11c-2.23,0-4.47,0-6.7.06h-.44V55.2L419.52,44v-.5h.5l13.24.06c4.41,0,8.83.12,13.24.17h.28V44c0,1.9-.08,3.79-.13,5.65Zm0,0-.14-5.65c-.05-1.87-.11-3.71-.13-5.54l.27.27c-4.41,0-8.83.16-13.24.17L420,44.51l.5-.5,0,11.19-.45-.45c2.18,0,4.36,0,6.55.06l6.58.11Z" style="fill:#ebebeb"></path><path d="M461.27,69.31l-13.12.28-6.66.11c-2.23,0-4.47,0-6.7.06h-.44v-.45l-.06-11.19v-.5h.5l13.24.06c4.42,0,8.83.12,13.24.17h.28v.27c0,1.9-.09,3.79-.13,5.65Zm0,0-.14-5.65c0-1.87-.11-3.71-.13-5.54l.27.27c-4.41,0-8.82.16-13.24.17l-13.24.06.5-.5-.05,11.19-.45-.45c2.18,0,4.36,0,6.55.06l6.58.11Z" style="fill:#ebebeb"></path><path d="M65.21,55.2l-13.13.28-6.66.11c-2.22,0-4.46,0-6.69.06h-.45V55.2L38.23,44v-.5h.5L52,43.57c4.41,0,8.82.12,13.24.17h.27V44c0,1.9-.09,3.79-.13,5.65Zm0,0-.14-5.65c0-1.87-.12-3.71-.14-5.54l.28.27c-4.42,0-8.83.16-13.24.17l-13.24.06.5-.5L39.17,55.2l-.44-.45c2.18,0,4.35,0,6.54.06l6.58.11Z" style="fill:#ebebeb"></path></g><g id="freepik--Shadow--inject-2"><ellipse cx="250" cy="453.43" rx="115.81" ry="16.8" style="fill:#ebebeb"></ellipse></g><g id="freepik--Floor--inject-2"><polygon points="34.56 397.17 88.42 396.93 142.28 396.84 250 396.67 357.72 396.84 411.58 396.93 465.44 397.17 411.58 397.42 357.72 397.5 250 397.67 142.28 397.5 88.42 397.42 34.56 397.17" style="fill:#263238"></polygon></g><g id="freepik--Plant--inject-2"><path d="M98.8,317.31A64.92,64.92,0,0,0,96.73,329c.11.2.09.92,0,.72,0,.64-1,.53-1-.11,0-.41,0-.82,0-1.22-2.28-2.84-5.6-4.64-8.29-7.11a15.53,15.53,0,0,1-4.54-7.22c-2.22-7.67-.14-15.8-2.81-23.45-2.31-6.59-6.45-12.33-9.95-18.3-3.7-6.32-6.42-13-6.7-20.36-.21-5.67.46-13.22,4.78-17.47,4.57-4.5,10.24-1.12,13.75,2.89C92.14,249,96.84,263.77,98.74,278.83c1,8.34,2.13,16.73,1.88,25.14A67.25,67.25,0,0,1,98.8,317.31Z" style="fill:#570DF8"></path><path d="M96.78,332.07a144.39,144.39,0,0,0-.28-23.62s0,0,0-.08c.13-6.39.63-12.75.38-19.14a113.58,113.58,0,0,0-2.81-20.52c0-.08-.14-.06-.12,0a134,134,0,0,1,2.22,20.07q.2,5.42-.09,10.82c-.06,1.17-.17,2.35-.24,3.54h0a126.26,126.26,0,0,0-19-50.27c-.13-.21-.5,0-.37.23A131.4,131.4,0,0,1,92,290.38c-4.89-9.05-12.26-16.49-17.74-25.19,0-.05-.1,0-.08.05,4.92,9.68,13,17.32,18.22,26.85.9,3.89,1.63,7.82,2.18,11.76a133.43,133.43,0,0,1,1.18,16.34c-3-5.56-6.07-10.88-8.5-16.76-.06-.16-.29-.05-.24.1,2.07,6.11,4.86,12.69,8.75,17.9,0,3.87-.09,7.74-.32,11.6-.6,10.31-2.37,20.49-3.18,30.76a.24.24,0,0,0,.47.06A237.68,237.68,0,0,0,96.78,332.07Z" style="fill:#263238"></path><path d="M85.83,252.55c0-.07-.14,0-.11,0,1.88,5.21,2.94,10.49,4.3,15.83a.2.2,0,0,0,.39-.07C89.86,263,87.93,257.54,85.83,252.55Z" style="fill:#263238"></path><path d="M133.65,274.38a77.74,77.74,0,0,1-4.33,8.9c-3.39,6.16-6.93,11.8-7.57,19-.28,3.2-.38,6.42-1.36,9.5a28.24,28.24,0,0,1-3.79,7.44c-3.67,5.36-8.27,10-11.67,15.53a65.22,65.22,0,0,0-7.76,18.7c-.09.36-.65.27-.57-.09a.24.24,0,0,0,0-.08.15.15,0,0,1,0-.08c-.54-15.38.69-30.87,5.38-45.6a157.46,157.46,0,0,1,7.45-19c2.51-5.34,5.64-10.48,10-14.47,2.86-2.58,9.07-7.46,13.14-4.88C134.57,270.5,134.42,272.46,133.65,274.38Z" style="fill:#570DF8"></path><path d="M118.2,309.24a125.87,125.87,0,0,1-8.94,12.84c-1.48,1.95-3,3.87-4.48,5.82-.7.92-1.49,1.83-2.13,2.82.4-1.62.8-3.23,1.21-4.85,2-7.77,3.89-15.61,6.85-23.08a157.24,157.24,0,0,1,10.67-20.93c.11-.17-.18-.3-.29-.13-3.24,5.34-6.54,10.68-9.27,16.31a86.1,86.1,0,0,0-3.94,9.68A149.84,149.84,0,0,1,113.12,287c0-.06-.07-.1-.09,0a70.84,70.84,0,0,0-5.44,21.51,0,0,0,0,0,0,0c-.67,2-1.28,4-1.85,6-2.42,8.6-4.55,17.29-6.52,26a92.58,92.58,0,0,1,1.48-17.1c0-.13-.17-.16-.2,0a54.24,54.24,0,0,0-1.49,18q-1.11,5-2.18,10c-1.51,7.09-3.36,14.3-4.25,21.5a.15.15,0,0,0,.29.05c1.05-3.88,1.69-7.91,2.55-11.83s1.76-7.88,2.67-11.8c1.34-5.73,2.74-11.43,4.16-17.13,1-2.09,2.8-3.95,4.18-5.7,1.51-1.92,3-3.85,4.5-5.8a86.71,86.71,0,0,0,7.4-11.45C118.38,309.21,118.25,309.16,118.2,309.24Z" style="fill:#263238"></path><path d="M118.86,302.66a79.65,79.65,0,0,0-8.75,13.9c0,.06.07.12.11.06,2.94-4.61,5.83-9.26,8.77-13.87C119,302.67,118.91,302.59,118.86,302.66Z" style="fill:#263238"></path><path d="M53.4,289c2,3.43,4.27,7.55,3.41,11.67-.54,2.61-2.45,4.73-2.79,7.39-.78,5.87,5.08,9.75,9.31,12.53,10.56,6.93,25,13.1,27,27.25.07.5.94.37.88-.12a.29.29,0,0,0,0-.09s0,0,0-.08A54.22,54.22,0,0,0,91,325.9c-1.57-7.29-4.76-13.84-8.51-20.25-6.36-10.84-13.09-21.94-22.69-30.24-2.66-2.3-8.11-6.43-10.23-1.25S51,284.77,53.4,289Z" style="fill:#570DF8"></path><path d="M63.06,311.94c7,7.58,18.13,11.83,24.16,20.32a85,85,0,0,0-18.57-34.88A.27.27,0,0,1,69,297a68.63,68.63,0,0,1,15.17,22,98.42,98.42,0,0,0-6.53-16.71.18.18,0,0,1,.31-.18,63.9,63.9,0,0,1,7,18.78c7.94,19.22,8.68,41.76,7,62a.23.23,0,0,1-.46,0c.46-16,.2-32.21-3.62-47.8-.08-.32-.17-.64-.25-1-6.56-9.14-17.64-13.37-24.77-22.05C62.87,312,63,311.86,63.06,311.94Z" style="fill:#263238"></path><path d="M61.44,305.43c3.68,3.37,7.29,6.82,11,10.19,0,0,0,.1,0,.07a53.74,53.74,0,0,1-11.14-10C61.1,305.5,61.29,305.29,61.44,305.43Z" style="fill:#263238"></path><path d="M60.86,290.82a115.65,115.65,0,0,0,11,15.13c0,.06,0,.15-.1.09a53.53,53.53,0,0,1-11.1-15.1A.12.12,0,0,1,60.86,290.82Z" style="fill:#263238"></path><polygon points="77.41 397.17 109.59 397.17 105.26 353.87 82.36 353.87 77.41 397.17" style="fill:#455a64"></polygon><polygon points="81.56 360.9 105.97 360.9 105.26 353.87 82.36 353.87 81.56 360.9" style="fill:#263238"></polygon><rect x="78.41" y="349.07" width="30.17" height="6.91" transform="translate(187 705.05) rotate(180)" style="fill:#455a64"></rect></g><g id="freepik--Character--inject-2"><path d="M233.74,351l28.46,37.59c5.48,7.16,10.15,13.53,12.26,17.05,0,0,0,0,0,.06a6.32,6.32,0,0,1,1.17,2.61s0,.06,0,.08c-1,3.07-56.93,48.5-59.42,49.43s-5.32-6.07-4.56-9.57,14.4-30.47,14.4-30.47L198,379.92Z" style="fill:#eb9481"></path><path d="M256.36,380.84l5.84,7.71c5.48,7.16,10.15,13.53,12.26,17.05,0,0,0,0,0,.06a12.7,12.7,0,0,1,1.17,2.61s0,.06,0,.08c-1,3.07-56.93,48.5-59.42,49.43s-5.32-6.07-4.56-9.57,14.4-30.47,14.4-30.47L220,410Z" style="fill:#ebebeb"></path><path d="M216.23,457.78c2.49-.92,58.39-46.35,59.42-49.43.41-1.17-5.73-9.7-13.45-19.79l-.25-.32-36.39,28.91.51.6s-13.62,27-14.4,30.47S213.75,458.72,216.23,457.78Z" style="fill:#570DF8"></path><path d="M215.1,455.1c9.24-7.89,47.23-38.83,57-45.93.08-.06.13,0,.05.06-9,8-47.23,38.66-56.88,46C215,455.41,214.91,455.27,215.1,455.1Z" style="fill:#263238"></path><path d="M223.13,420.32c3.14-3.71,8.14-6.82,13.12-6.48.2,0,.17.28,0,.34a67.3,67.3,0,0,0-12.75,6.6A.31.31,0,0,1,223.13,420.32Z" style="fill:#263238"></path><path d="M221.76,424.11c3.15-3.71,8.15-6.82,13.13-6.48.19,0,.17.28,0,.34a67.23,67.23,0,0,0-12.75,6.59A.3.3,0,0,1,221.76,424.11Z" style="fill:#263238"></path><path d="M220.4,427.9c3.14-3.71,8.14-6.83,13.12-6.49.19,0,.17.29,0,.35a67.84,67.84,0,0,0-12.75,6.59A.3.3,0,0,1,220.4,427.9Z" style="fill:#263238"></path><path d="M260.09,383.63l-38.95,32.64S176.32,359,166.21,330.13c-7.19-20.57,26-123.51,26-123.51l42.47-2.87s-27.49,99.14-24.44,108.77C214,324.25,260.09,383.63,260.09,383.63Z" style="fill:#37474f"></path><path d="M216.81,406.9c6.05-5,4.24-3.67,10.36-8.62,3-2.43,22.65-18.35,25.84-20.13.07,0,.15.07.1.13-2.45,2.7-22.39,18.28-25.42,20.65-6.21,4.84-4.48,3.38-10.74,8.15A.11.11,0,1,1,216.81,406.9Z" style="fill:#263238"></path><path d="M247.16,376.56Q236.27,363,226,348.9c-6.8-9.32-13.51-18.78-19.61-28.57a30.75,30.75,0,0,1-3.51-7.08,18.62,18.62,0,0,1-.3-8.75c.95-5.79,2.16-11.55,3.37-17.29q3.66-17.28,8.32-34.34c3.1-11.36,6.57-22.62,10.24-33.81.45-1.37.91-2.75,1.37-4.13.07-.2-.25-.28-.32-.08q-6.18,16.82-11.1,34.06t-8.77,34.55q-1.92,8.73-3.57,17.54a36.67,36.67,0,0,0-1,8.72,19.19,19.19,0,0,0,2.09,7.33,58.91,58.91,0,0,0,4.29,7.05q2.42,3.64,4.9,7.26,5,7.29,10.2,14.43c6.9,9.44,14,18.79,21.63,27.66.93,1.09,1.87,2.17,2.8,3.25C247.06,376.8,247.24,376.66,247.16,376.56Z" style="fill:#263238"></path><path d="M234.72,203.75s-8,28.92-14.92,57c-7.73-16-20.91-43.56-25.34-54.32Z" style="fill:#263238"></path><path d="M285.23,269.67l25.38-33.36c5.92-6.79,11.23-12.65,14.26-15.42a.07.07,0,0,1,.05,0c1.14-1,1.95-1.65,2.33-1.66,0,0,.05,0,.07,0,3.22.39,58.91,46.09,60.31,48.34s-4.89,6.43-8.47,6.38-32.73-8-32.73-8l-27,33.37Z" style="fill:#eb9481"></path><path d="M327.25,219.19l.07,0c3.22.4,58.91,46.1,60.31,48.35s-4.89,6.43-8.46,6.38-32.74-8-32.74-8l-4.86,6.69c-9.18-7.43-25.92-21-36.08-29.53,2.83-4,5.12-6.72,5.13-6.73,5.91-6.8,11.21-12.65,14.24-15.41l.06-.05C326.06,219.8,326.87,219.2,327.25,219.19Z" style="fill:#ebebeb"></path><path d="M387.63,267.52c-1.4-2.25-57.09-47.95-60.31-48.34-1.22-.17-8.35,7.55-16.7,17.13l-.26.31L346,266.5l.49-.62s29.14,8,32.73,8S389.05,269.76,387.63,267.52Z" style="fill:#570DF8"></path><path d="M385.23,269.16c-9.57-7.47-47.49-38.52-56.39-46.63-.07-.07,0-.12.05-.06,9.65,7.2,47.32,38.55,56.47,46.54C385.55,269.17,385.43,269.32,385.23,269.16Z" style="fill:#263238"></path><path d="M349.55,268.25c-4.26-2.34-8.32-6.62-9-11.57,0-.19.25-.22.34-.09a67.63,67.63,0,0,0,9,11.18A.3.3,0,0,1,349.55,268.25Z" style="fill:#263238"></path><path d="M353.53,268.83c-4.26-2.34-8.31-6.62-9-11.57,0-.19.24-.22.33-.08a67.51,67.51,0,0,0,9,11.17A.31.31,0,0,1,353.53,268.83Z" style="fill:#263238"></path><path d="M357.51,269.41c-4.25-2.34-8.31-6.62-9-11.56,0-.2.25-.23.34-.09a67.14,67.14,0,0,0,9,11.17A.31.31,0,0,1,357.51,269.41Z" style="fill:#263238"></path><path d="M193,206.53v.05c.25.86,4.15,14.43,8,26.06,2.82,8.49,5.64,15.93,7,16.63,1.55.78,9.06,3.52,11.58,4.37,0,0,16.16,55.91,29.62,74.1,4.61,6.24,25.61,12.48,35.88,5.74,24.1-15.8,59.79-56.89,59.79-56.89l-41.58-34-29.44,39c-7.29-13.53-11.25-40.84-11.25-40.84s-1.65-27-11.55-38.21Z" style="fill:#37474f"></path><path d="M334.85,281.55c-6.26-4.76-4.53-3.31-10.74-8.14-3-2.37-23-17.92-25.44-20.63a.08.08,0,0,1,.09-.12c3.19,1.77,22.87,17.67,25.87,20.09,6.11,4.95,4.3,3.6,10.36,8.62A.11.11,0,0,1,334.85,281.55Z" style="fill:#263238"></path><path d="M249.84,234.13c-1.34-.25-2.75-.26-4.1-.38-1.1-.1-2.19-.22-3.28-.38a14.09,14.09,0,0,1-5.86-2c-1.95-1.31-3-3.44-4.08-5.49-.62-1.21-1.25-2.42-1.89-3.62l-.95-1.74a21.33,21.33,0,0,1-1.16-2.09c0-.1-.21,0-.16.06a13.18,13.18,0,0,1,.57,1.52c.22.59.43,1.19.66,1.78.4,1,.8,2.1,1.23,3.15a25.82,25.82,0,0,0,2.67,5.49c2.19,3,5.82,4.05,9.39,4.26,1,.05,2.05.06,3.07.05a21.76,21.76,0,0,0,3.87-.24A.18.18,0,0,0,249.84,234.13Z" style="fill:#263238"></path><path d="M204,247.6a95.56,95.56,0,0,1,15.51,6,.17.17,0,0,1-.12.32c-5.21-1.83-10.51-3.56-15.62-5.68A.33.33,0,0,1,204,247.6Z" style="fill:#263238"></path><path d="M200.16,213c0-.18.31-.24.32-.05.37,6,1.11,11.28,2,16.86.42,2.6,3.49,16.87,7.94,15.51.75-.23,1.08-1,1.13-2.15a18.65,18.65,0,0,0-.9-4.38c-.71-3-1.32-6-1.78-9a82.69,82.69,0,0,1-1-17.07.15.15,0,0,1,.29,0,155.34,155.34,0,0,0,3,23.45c.82,3.71,3.09,9.23-.79,10.07s-7.18-8.42-7.84-11A86.72,86.72,0,0,1,200.16,213Z" style="fill:#263238"></path><path d="M210.32,245.74a25,25,0,0,1,1.22,2.92,6.88,6.88,0,0,1,.59,2.42.18.18,0,0,1-.31.09,8.4,8.4,0,0,1-1.21-2.32c-.41-.9-.84-1.79-1.22-2.7A.51.51,0,0,1,210.32,245.74Z" style="fill:#263238"></path><path d="M298.9,257.22Q289.32,271,278.57,284q-2.91,3.48-5.92,6.88c-6.51-9-9.68-19.76-12.21-30.48-.65-2.75-1.26-5.51-1.89-8.27a89.65,89.65,0,0,1-1.89-8.9c-.39-3.11-.22-6.28-.5-9.41a72.34,72.34,0,0,0-1.43-9,88.92,88.92,0,0,0-6.84-19.44c0-.08-.18,0-.15.06a119.67,119.67,0,0,1,6,17.61,76.9,76.9,0,0,1,1.66,9.29c.36,3.15.32,6.3.53,9.46a56.86,56.86,0,0,0,1.68,8.87c.63,2.75,1.24,5.51,1.87,8.26A152.26,152.26,0,0,0,263.92,275a60.17,60.17,0,0,0,8.45,16.45.3.3,0,0,0,.48,0c7.34-8.43,14.35-17.16,20.84-26.3q2.78-3.9,5.45-7.88C299.23,257.21,299,257.08,298.9,257.22Z" style="fill:#263238"></path><path d="M274.16,281.37a13.25,13.25,0,0,0-.68,1.21l-.21.16a2.49,2.49,0,0,0-.38.34,4.83,4.83,0,0,0-.58.84,4.51,4.51,0,0,0-.44,2,0,0,0,1,0,0,0,4.9,4.9,0,0,1,.66-1.84,5.1,5.1,0,0,1,.53-.78,1.56,1.56,0,0,0,.16-.2c0,.08-.08.15-.11.24a11.92,11.92,0,0,0-.54,2.29,8.26,8.26,0,0,0,0,2.22A11.6,11.6,0,0,0,273,290a0,0,0,0,0,.05,0c0-.74-.09-1.47,0-2.22s.23-1.44.33-2.16a18.82,18.82,0,0,1,.41-2.09c.17-.7.31-1.43.52-2.13C274.33,281.34,274.21,281.3,274.16,281.37Z" style="fill:#263238"></path><path d="M228.37,138.68c-7.85,5.66-44.53,20.57-57.9,13.83-13.62-6.88-27.11-43.83-29.79-47-7.35-8.78,24.26-21.22,27.15-15.13,4.83,10.17,15.09,37.33,19.8,37.92,9.91,1.24,19-.05,34.5-.24C233,127.91,237,132.43,228.37,138.68Z" style="fill:#eb9481"></path><path d="M171.15,97.09s12.86,29,15.76,29.8c4.83,1.38,31,.47,40.4.63s18.45,8.48-3.81,16.79-41,12.64-53.11,9.92c-7.52-1.7-28.17-34.3-28.17-34.3Z" style="fill:#570DF8"></path><path d="M171.15,97.09s12.86,29,15.76,29.8c4.83,1.38,31,.47,40.4.63s18.45,8.48-3.81,16.79-41,12.64-53.11,9.92c-7.52-1.7-28.17-34.3-28.17-34.3Z" style="opacity:0.1"></path><path d="M147.82,125.24c10.31-9.72,22.57-18.28,24.6-19.93.1-.08.21.09.11.17-2.08,1.51-15.06,12.9-24.6,20C147.82,125.51,147.72,125.33,147.82,125.24Z" style="fill:#263238"></path><path d="M237.33,134.15c-.4,2.94-4.15,6.55-13.83,10.16-22.25,8.32-41,12.64-53.1,9.92-1.5-.34-3.53-1.91-5.81-4.22C181.74,146.31,223.09,137.41,237.33,134.15Z" style="opacity:0.1"></path><path d="M142.71,108.81c3.1,2.31,25-10.58,25.5-14.51a15.45,15.45,0,0,0-.38-4h0s1.54-8.7,5.4-15.49c3.23-5.7,8.68-13.8,5.68-15.65-4.37-2.72-12.49,6.7-16.83,12.38-1.54-3.57-3.19-6.49-4.79-7.85C152,59.24,129,80.3,130.32,87.22,131.61,93.9,139.61,106.51,142.71,108.81Z" style="fill:#eb9481"></path><path d="M164.06,72.28c-1.24,3.38-4.52,0-4.52,0s3.54,6,.91,9-6.35-1.36-6.63-1.66c.18.32,3.29,5.94.34,8.68s-6.17-2.08-6.37-2.4c.08.36,1.05,5.1-1.67,6.67-4.67,2.69-7.47-9.37-11.26-11.52,0,0-4.38,6-4.55,6.17,0,0-2.9-11.42.29-16.38a3.76,3.76,0,0,1,4.45-1.57s-1.34-3.58.91-5.8c1.16-1.14,4-.3,4-.3s-1-2.91,1.17-4.77c1.7-1.49,4.3-.41,4.3-.41s.38-3.22,2.61-4.17C152.54,51.88,166.71,65,164.06,72.28Z" style="fill:#eb9481"></path><path d="M145.89,58.1s0-.12.05-.09a33.55,33.55,0,0,1,13.8,14.41c.09.2-.19.43-.33.24A68.73,68.73,0,0,0,145.89,58.1Z" style="fill:#263238"></path><path d="M139.94,63.07c-.06,0,0-.14.08-.1,5.88,3.32,11.69,9.4,14.08,16.66.08.25-.1.55-.21.27C151.93,75.2,144.86,66.92,139.94,63.07Z" style="fill:#263238"></path><path d="M147.78,86.46c-2.56-6.87-7.06-12.23-12.48-17.07-.07-.06,0-.15.1-.12,3.29,1.65,6.43,5.09,8.64,8a19.5,19.5,0,0,1,4,9.13C148,86.51,147.84,86.61,147.78,86.46Z" style="fill:#263238"></path><path d="M159.66,72.28c.11.24-.35.14-.25.38.43,1,2.48,7.26.57,8.62-1.54,1.09-4.07-.22-4.84-1.11L153.19,78l1.06,2.77a12,12,0,0,1,.81,3.83,4.32,4.32,0,0,1-1.1,3.36,2.47,2.47,0,0,1-3.08.43,7.4,7.4,0,0,1-2.57-2.72l-1.8-3,.71,3.41a11.64,11.64,0,0,1,.23,2.89,4.7,4.7,0,0,1-.81,2.58,2.22,2.22,0,0,1-2.18.86,5,5,0,0,1-2.26-1.58,39.62,39.62,0,0,1-3.49-5c-.56-.86-1.11-1.73-1.71-2.57a7.36,7.36,0,0,0-2.14-2.2,7.91,7.91,0,0,1,1.9,2.36c.53.87,1,1.77,1.5,2.68a32.74,32.74,0,0,0,3.31,5.25,5.78,5.78,0,0,0,2.65,2,3.16,3.16,0,0,0,3.26-1.15A5.69,5.69,0,0,0,148.57,89a12.52,12.52,0,0,0-.21-3.23l-1.08.41a8.49,8.49,0,0,0,3,3.24,3.53,3.53,0,0,0,2.38.46,4.05,4.05,0,0,0,2.11-1.12,5.41,5.41,0,0,0,1.4-4.25,12.85,12.85,0,0,0-1-4.2l-.89.54c1,1.09,3.69,2.86,6.28,1.48C163.73,80,160.36,73.44,159.66,72.28Z" style="fill:#263238"></path><path d="M159.54,72.26a7.44,7.44,0,0,0,2,1,1.66,1.66,0,0,0,1.66-.34,3.36,3.36,0,0,0,.77-1.77c.12-.72.22-1.48.28-2.26a5.57,5.57,0,0,1,.5,2.33,3.34,3.34,0,0,1-.85,2.43,2.42,2.42,0,0,1-1.3.61,2.6,2.6,0,0,1-1.34-.26A3.92,3.92,0,0,1,159.54,72.26Z" style="fill:#263238"></path><path d="M256.34,218c-.21.16-64.72-7-65.25-7.83-.74-1.22,18.48-68.09,33.24-81.82,3.69-3.43,13.9-1.9,18,2.53C262.69,152.87,257.07,217.43,256.34,218Z" style="fill:#ebebeb"></path><path d="M223.77,128.37,199,218.67l-12.67-9.09S207,151.08,213,141.77,223.77,128.37,223.77,128.37Z" style="fill:#570DF8"></path><path d="M223.77,128.37,199,218.67l-12.67-9.09S207,151.08,213,141.77,223.77,128.37,223.77,128.37Z" style="opacity:0.1"></path><path d="M238.36,127.73s-1,34.74-1,42.9-1.89,52.72-1.89,52.72L264.82,218s-5.36-43.21-7.22-53.19S247.88,130.67,238.36,127.73Z" style="fill:#570DF8"></path><path d="M238.36,127.73s-1,34.74-1,42.9-1.89,52.72-1.89,52.72L264.82,218s-5.36-43.21-7.22-53.19S247.88,130.67,238.36,127.73Z" style="opacity:0.1"></path><path d="M245.32,147.26c17.06,17.47,39.67,36.16,52.24,33.49,11.37-2.42,27.71-15.75,45.54-30.12,3.54-2.85-20.09-29.23-23.56-25.81-6.83,6.73-20.85,23.91-26.08,25.81-2.24.81-27.32-11.72-43.76-18C229.74,125,238.52,140.3,245.32,147.26Z" style="fill:#eb9481"></path><path d="M358.76,138.48c-4.68,5.63-20.92,16.19-25,16.76s-18.14-22.91-16.58-26.88,18.77-21.72,26.09-23.23S363.61,132.64,358.76,138.48Z" style="fill:#eb9481"></path><path d="M332.44,109.71c-.57,3.83,4.28,2.32,4.28,2.32s-6.46,3.86-5.52,8c.91,4,6.7,2,7.12,1.85-.34.21-6.18,3.92-4.8,8,1.43,4.27,6.89,1.23,7.25,1-.26.3-3.62,4.28-1.87,7.16,3,5,11.89-5,16.59-5.06,0,0,2.85,5.61,2.93,5.83,0,0,6.81-6.94,6.36-13.27a4,4,0,0,0-3.39-3.78s3.12-2.69,2.14-6c-.51-1.68-3.64-2.36-3.64-2.36s2.4-2.26,1.35-5.11c-.83-2.28-3.84-2.61-3.84-2.61s1.3-3.24-.31-5.29C353.86,96.4,333.68,101.49,332.44,109.71Z" style="fill:#eb9481"></path><path d="M356.93,105.71a.06.06,0,0,0,0-.11,36.06,36.06,0,0,0-20.47,6.48c-.19.14-.05.5.19.39A73.77,73.77,0,0,1,356.93,105.71Z" style="fill:#263238"></path><path d="M360,113.48c.08,0,.06-.14,0-.14-7.26.1-15.89,2.84-21.9,8.46-.2.19-.19.57.06.37C342.39,118.73,353.34,114.57,360,113.48Z" style="fill:#263238"></path><path d="M340.48,131.52c6-5.17,13-7.9,20.61-9.67.1,0,.06-.16,0-.17-4-.15-8.7,1.49-12.28,3.07a20.75,20.75,0,0,0-8.48,6.56C340.21,131.42,340.35,131.63,340.48,131.52Z" style="fill:#263238"></path><path d="M336.72,112a22.25,22.25,0,0,0-3.25,2.87,7.93,7.93,0,0,0-2.11,3.57,2.62,2.62,0,0,0,.29,1.85,3.77,3.77,0,0,0,1.36,1.36,4.69,4.69,0,0,0,3.78.1l3-1.1-2.42,2.07a12.88,12.88,0,0,0-2.75,3.19,4.68,4.68,0,0,0-.69,3.75,2.67,2.67,0,0,0,2.68,2,8.06,8.06,0,0,0,3.83-1.24l3.25-1.91-2.43,2.85a12.31,12.31,0,0,0-1.71,2.62,5.09,5.09,0,0,0-.57,2.85,2.4,2.4,0,0,0,1.61,1.94,5.29,5.29,0,0,0,2.95-.32,41.91,41.91,0,0,0,5.87-2.88c1-.53,1.94-1.06,2.94-1.55a7.86,7.86,0,0,1,3.16-1,8.51,8.51,0,0,0-3,1.24c-1,.56-1.87,1.16-2.8,1.76a35.23,35.23,0,0,1-5.84,3.25,6.17,6.17,0,0,1-3.52.5,3.4,3.4,0,0,1-2.49-2.77,6.26,6.26,0,0,1,.61-3.56,13.9,13.9,0,0,1,1.86-2.94l.82.95a9.29,9.29,0,0,1-4.52,1.51,3.88,3.88,0,0,1-2.48-.8,4.32,4.32,0,0,1-1.42-2.15,5.91,5.91,0,0,1,.87-4.74,14.4,14.4,0,0,1,3.08-3.47l.57,1a5.55,5.55,0,0,1-4.67-.37,4.67,4.67,0,0,1-1.6-1.76,3.4,3.4,0,0,1-.26-2.38,8.13,8.13,0,0,1,2.51-3.69A19.35,19.35,0,0,1,336.72,112Z" style="fill:#263238"></path><path d="M319.54,124.82s8.83-29.79,18.78-20.63c3,2.72,11.85,17.42,8.94,19.27-3.77,2.38-8.63-3.07-11.14-7,0,0-1.58,10.55-9.25,11.65A7.71,7.71,0,0,1,319.54,124.82Z" style="fill:#eb9481"></path><path d="M337.45,103.48a16.31,16.31,0,0,1,3.39,3.3,35,35,0,0,1,2.73,3.9,54.6,54.6,0,0,1,4.34,8.48,9,9,0,0,1,.6,2.45,3.4,3.4,0,0,1-.18,1.43,2.48,2.48,0,0,1-.39.7,2.59,2.59,0,0,1-.59.52,4,4,0,0,1-2.72.53,7.67,7.67,0,0,1-2.44-.9,14.36,14.36,0,0,1-3.7-3.22,32,32,0,0,1-2.83-3.88l1-.23a19.66,19.66,0,0,1-1,3.51,17.08,17.08,0,0,1-1.63,3.22,12.32,12.32,0,0,1-2.39,2.7,9.38,9.38,0,0,1-3.11,1.74,10.68,10.68,0,0,0,2.85-2,13,13,0,0,0,2.06-2.78,17.89,17.89,0,0,0,1.38-3.17,18.93,18.93,0,0,0,.76-3.34l.17-1.4.83,1.17a36.32,36.32,0,0,0,2.84,3.65,14.26,14.26,0,0,0,3.42,2.91c1.23.69,2.77,1.06,3.79.4.95-.5.58-2.19.1-3.58a43.72,43.72,0,0,0-1.8-4.28c-.65-1.42-1.33-2.83-2.07-4.2C341.32,108.39,339.77,105.61,337.45,103.48Z" style="fill:#263238"></path><path d="M316.07,128.19s-20.68,21.09-23.7,20.9c-5-.32-35.39-14.73-44.3-17.73s-18.46-1.23-4.38,15.41c15.89,18.77,33.68,35.49,52.07,35.51,9.91,0,40.77-21.54,40.77-21.54Z" style="fill:#570DF8"></path><path d="M316.07,128.19s-20.68,21.09-23.7,20.9c-5-.32-35.39-14.73-44.3-17.73s-18.46-1.23-4.38,15.41c15.89,18.77,33.68,35.49,52.07,35.51,9.91,0,40.77-21.54,40.77-21.54Z" style="opacity:0.1"></path><path d="M328.63,162.53c-6.46-12.62-15.14-24.78-16.51-27-.06-.11-.22,0-.15.12,1.45,2.12,9.87,17.2,16.49,27C328.54,162.78,328.7,162.65,328.63,162.53Z" style="fill:#263238"></path><path d="M256.88,161.06a17.84,17.84,0,0,1-1.32-1.56c-.49-.53-1-1.06-1.47-1.59-1-1-1.91-2-2.86-3.07-1.89-2.05-3.9-4-5.86-6,0,0-.07,0,0,0,1.79,2.16,3.55,4.33,5.49,6.36l.13.14-1.14-.77c-.79-.53-1.58-1.06-2.36-1.6,0,0-.1.05-.06.08.73.6,1.48,1.17,2.27,1.7.4.27.8.53,1.22.78l.58.34,2.19,2.27c.5.51,1,1,1.52,1.52s1.14.9,1.6,1.45C256.83,161.25,257,161.13,256.88,161.06Z" style="fill:#263238"></path><path d="M225.92,140.61c3.06.74,10.6-3.78,14.06-8.15.23-.3.31-3.87.62-8.2.19-2.63.47-5.55.92-8.2l-17.28,1.23a42.81,42.81,0,0,1-.12,10.43,5.57,5.57,0,0,1-.3,1.07c0,.05,0,.11,0,.18C223.08,131,221.13,139.45,225.92,140.61Z" style="fill:#eb9481"></path><path d="M223.83,128.79a.63.63,0,0,0-.06.18,10.57,10.57,0,0,0,1.69.38c9.48,1.38,13.73-9.74,14.81-13.2l-16,1.13a43,43,0,0,1-.1,10.45A6.87,6.87,0,0,1,223.83,128.79Z" style="fill:#263238"></path><path d="M249.19,96.19c.25,6.23-7.18,22.12-12.26,24.76-7.37,3.83-17.26,1.79-20-6.57-2.62-8.11,7.42-28.64,12.9-30.81C237.93,80.36,248.82,87,249.19,96.19Z" style="fill:#eb9481"></path><path d="M235.25,99.58a14.29,14.29,0,0,1-1.15-1.06,2.5,2.5,0,0,1-1-1.3.82.82,0,0,1,.51-.85,2,2,0,0,1,1.93.61,2.91,2.91,0,0,1,1.05,1.83A.86.86,0,0,1,235.25,99.58Z" style="fill:#a6a6a6"></path><path d="M224.57,95c.52.13,1,.16,1.55.24a2.56,2.56,0,0,0,1.62-.06.82.82,0,0,0,.35-.92,2,2,0,0,0-1.69-1.13,2.88,2.88,0,0,0-2.09.32A.86.86,0,0,0,224.57,95Z" style="fill:#a6a6a6"></path><path d="M229.06,111.86a1.74,1.74,0,0,1-1.19.25,3.17,3.17,0,0,1-1.05-.77s-.07,0-.07,0a1.61,1.61,0,0,0,1.13,1.18,1.23,1.23,0,0,0,1.26-.59C229.19,111.9,229.11,111.84,229.06,111.86Z" style="fill:#263238"></path><path d="M229.32,108.13a4,4,0,0,1-3.18.58,5.27,5.27,0,0,1-1.35-.51,1.38,1.38,0,0,1-.24-.14,1,1,0,0,1-.22-.14.29.29,0,0,1-.12-.33h0a.54.54,0,0,1,.05-.11h0l0-.09c.34-.85,1-2.08,1-2.08-.37,0-2.22,0-2-.38a60.18,60.18,0,0,1,6.24-10.56c.07-.11.25,0,.18.11-1.56,3.45-3.72,6.61-5.35,10.05a6.8,6.8,0,0,1,2,.22c.1.08-1.26,2.36-1.38,2.76a.16.16,0,0,1,0,0,5.59,5.59,0,0,0,4.34.45C229.36,108,229.42,108.07,229.32,108.13Z" style="fill:#263238"></path><path d="M225.46,108a4.72,4.72,0,0,0,1.17,2.11,2.15,2.15,0,0,0,1.17.59c1,.15,1.33-.64,1.46-1.39a5.27,5.27,0,0,0,.06-1.21A6.21,6.21,0,0,1,225.46,108Z" style="fill:#263238"></path><path d="M226.63,110.1a2.15,2.15,0,0,0,1.17.59c1,.15,1.33-.64,1.46-1.39A2.23,2.23,0,0,0,226.63,110.1Z" style="fill:#ff9bbc"></path><path d="M234,102.23a1.8,1.8,0,0,0-.07-.94,1.32,1.32,0,0,0-.74-.71,1.18,1.18,0,0,0-1,.15,2,2,0,0,0-.61.69,4.77,4.77,0,0,0-.22.52,2.48,2.48,0,0,0-.14,1.14,4.12,4.12,0,0,1,.32-.78,5.84,5.84,0,0,1,.41-.64c.31-.41.72-.7,1.09-.54a1,1,0,0,1,.55,1.07,8.45,8.45,0,0,1-.23,1.6A3.76,3.76,0,0,0,234,102.23Z" style="fill:#263238"></path><path d="M223.46,97.4a1.87,1.87,0,0,1,.73-.59,1.29,1.29,0,0,1,1,0,1.17,1.17,0,0,1,.61.84,2,2,0,0,1-.09.92,3.33,3.33,0,0,1-.21.52,2.53,2.53,0,0,1-.73.89,3.48,3.48,0,0,0,.34-.77,5,5,0,0,0,.18-.74c.08-.51,0-1-.36-1.16a1,1,0,0,0-1.16.34,8.14,8.14,0,0,0-1,1.28A3.56,3.56,0,0,1,223.46,97.4Z" style="fill:#263238"></path><g style="opacity:0.2"><path d="M233.4,93.57a14.77,14.77,0,0,1-1.86-.56c-.61-.26-1.16-.63-1.77-.87a10.72,10.72,0,0,0-3.67-.56c-.11,0-.12.07,0,.07a9.19,9.19,0,0,1,3.79.88,11.47,11.47,0,0,0,3,1.19A11.56,11.56,0,0,1,239.27,97s0,0,0,0A11.63,11.63,0,0,0,233.4,93.57Z"></path><path d="M234.05,92a13.69,13.69,0,0,1-1.76-.53c-.58-.25-1.1-.6-1.68-.83a10.1,10.1,0,0,0-3.48-.53c-.1,0-.11.06,0,.07a8.66,8.66,0,0,1,3.59.83,10.81,10.81,0,0,0,2.83,1.13,11,11,0,0,1,6.08,3.07s0,0,0,0A11,11,0,0,0,234.05,92Z"></path></g><path d="M224.89,87.89c4.4,6.1,14.55,2.92,14.55,2.92a6.75,6.75,0,0,0,5,6.33s-2.4,10.28.21,11.19c4,1.41,10-11.6,9.74-14.7s-3.42-5-3.42-5a6.88,6.88,0,0,0-1.29-4.89c-2-3-12.32-3.62-12.32-3.62a9.3,9.3,0,0,0-1.23-4.09,2.6,2.6,0,0,0-3.65-.94,6.08,6.08,0,0,1,.07,2.77c-.57,3.06-2.93,2.2-2-.41a4.29,4.29,0,0,1,1.89-2.36c-.55-2.13-2.25-3.38-3.74-2.87C226,73.15,221.23,82.83,224.89,87.89Z" style="fill:#a6a6a6"></path><path d="M230.3,107.12a4.8,4.8,0,0,1-1.46-6.62h0a4.79,4.79,0,1,1,2.54,7.13A4.44,4.44,0,0,1,230.3,107.12Zm-.92-6.28a4.15,4.15,0,1,0,5.73-1.26,3.94,3.94,0,0,0-.93-.44A4.16,4.16,0,0,0,229.38,100.84Z" style="fill:#455a64"></path><path d="M221.14,102.82c-1.78-.83-2.33-3.46-1.21-5.85a5.74,5.74,0,0,1,2.33-2.61,3,3,0,0,1,4.63,2.16,5.67,5.67,0,0,1-.49,3.46c-1.06,2.27-3.23,3.53-5,3Zm1.43-7.9a5.06,5.06,0,0,0-2.06,2.32c-1,2.07-.56,4.32.9,5s3.44-.45,4.41-2.53a5.09,5.09,0,0,0,.44-3.07,2.56,2.56,0,0,0-1.35-1.93l-.22-.09A2.65,2.65,0,0,0,222.57,94.92Z" style="fill:#455a64"></path><path d="M228.75,101.07l.58-.27c-.4-.86-1.58-2.31-3.17-1.67l.24.59C227.83,99.14,228.71,101,228.75,101.07Z" style="fill:#455a64"></path><path d="M247.58,111.2l.64,0c0-.29-.15-2.93-1.35-3.75s-9.25-3.65-9.59-3.78l-.22.61c2.33.83,8.58,3.11,9.45,3.7S247.55,110.48,247.58,111.2Z" style="fill:#455a64"></path><path d="M242.06,108.85s5.27-4.3,7.33-2.27-3,9-6.14,9.26a3,3,0,0,1-3.45-2.67Z" style="fill:#eb9481"></path><path d="M247.89,108.54c.05,0,0,.08,0,.08-2.24.24-3.82,1.8-5.11,3.52a1.67,1.67,0,0,1,2.53.24.07.07,0,0,1-.08.1,1.86,1.86,0,0,0-2.15.06,9.13,9.13,0,0,0-1.39,1.32c-.15.16-.45,0-.32-.22l0,0C242.08,111,245.08,108,247.89,108.54Z" style="fill:#263238"></path><path d="M223.68,128.47l3.7,10.35,13.16-12.41,3.43,4.28s-13.18,20-13.22,19.08l-3.86-9-6.3,5.88,1.08-15.33Z" style="fill:#ebebeb"></path><path d="M220.69,139.09c.27-2.52.46-5.07.84-7.58,0-.09.16-.13.18,0,.41,2.46-.65,12.11-.73,14.43l0,0c.26-.26,5.83-5.16,5.88-5.08.85,1.43,3.69,8,3.88,8.54,2.08-3.18,10-14.72,12.49-17.71a.08.08,0,1,1,.14.09c-1.86,3.37-12.41,18.92-12.56,18.87a97.35,97.35,0,0,1-4-9.46c-1,1.08-6.59,6.64-6.59,6.27A79.89,79.89,0,0,1,220.69,139.09Z" style="fill:#263238"></path></g><g id="freepik--Sparkles--inject-2"><polygon points="280.86 259.21 276.82 259.96 275.92 264.21 275.02 259.96 270.99 259.21 275 258.23 275.92 254.21 276.84 258.23 280.86 259.21" style="fill:#570DF8"></polygon><polygon points="212.14 69.5 208.1 70.25 207.2 74.5 206.3 70.25 202.27 69.5 206.28 68.52 207.2 64.5 208.12 68.52 212.14 69.5" style="fill:#570DF8"></polygon><polygon points="163.74 206.01 159.7 206.75 158.8 211 157.9 206.75 153.87 206.01 157.88 205.03 158.8 201.01 159.72 205.03 163.74 206.01" style="fill:#570DF8"></polygon><polygon points="278.3 188.88 274.27 189.63 273.37 193.88 272.47 189.63 268.43 188.88 272.45 187.9 273.37 183.88 274.29 187.9 278.3 188.88" style="fill:#570DF8"></polygon><polygon points="330.42 172.09 328.17 172.5 327.66 174.88 327.16 172.5 324.91 172.09 327.15 171.54 327.66 169.29 328.18 171.54 330.42 172.09" style="fill:#570DF8"></polygon><polygon points="190.67 164.26 188.42 164.68 187.92 167.06 187.41 164.68 185.16 164.26 187.4 163.71 187.92 161.47 188.43 163.71 190.67 164.26" style="fill:#570DF8"></polygon><polygon points="260.53 85.16 258.27 85.58 257.77 87.95 257.27 85.58 255.01 85.16 257.26 84.61 257.77 82.37 258.28 84.61 260.53 85.16" style="fill:#570DF8"></polygon><polygon points="313.11 210.53 310.86 210.94 310.36 213.32 309.85 210.94 307.6 210.53 309.84 209.98 310.36 207.73 310.87 209.98 313.11 210.53" style="fill:#570DF8"></polygon><polygon points="294.78 215.1 292.52 215.51 292.02 217.89 291.51 215.51 289.26 215.1 291.5 214.55 292.02 212.3 292.53 214.55 294.78 215.1" style="fill:#570DF8"></polygon><polygon points="294.78 120.45 292.52 120.87 292.02 123.25 291.51 120.87 289.26 120.45 291.5 119.9 292.02 117.66 292.53 119.9 294.78 120.45" style="fill:#570DF8"></polygon><polygon points="196.92 117.05 194.66 117.46 194.16 119.84 193.65 117.46 191.4 117.05 193.65 116.5 194.16 114.25 194.67 116.5 196.92 117.05" style="fill:#570DF8"></polygon><polygon points="141.38 114.59 139.13 115.01 138.62 117.39 138.12 115.01 135.87 114.59 138.11 114.04 138.62 111.8 139.14 114.04 141.38 114.59" style="fill:#570DF8"></polygon><polygon points="171.68 226.37 169.43 226.79 168.93 229.16 168.42 226.79 166.17 226.37 168.41 225.82 168.93 223.58 169.44 225.82 171.68 226.37" style="fill:#570DF8"></polygon><path d="M285.48,225.72a.65.65,0,0,0,0,1.3A.65.65,0,0,0,285.48,225.72Z" style="fill:#570DF8"></path><path d="M295.41,134.07a.66.66,0,0,0,0,1.31A.66.66,0,0,0,295.41,134.07Z" style="fill:#570DF8"></path><path d="M180.4,78a.66.66,0,0,0,0,1.31A.66.66,0,0,0,180.4,78Z" style="fill:#570DF8"></path><path d="M130.53,119.15a.65.65,0,0,0,0,1.3A.65.65,0,0,0,130.53,119.15Z" style="fill:#570DF8"></path><path d="M168.93,183.88a.66.66,0,0,0,0,1.31A.66.66,0,0,0,168.93,183.88Z" style="fill:#570DF8"></path><path d="M149.58,171.93a.46.46,0,0,0,0,.92A.46.46,0,0,0,149.58,171.93Z" style="fill:#570DF8"></path><path d="M185.54,94a.46.46,0,0,0,0,.92A.46.46,0,0,0,185.54,94Z" style="fill:#570DF8"></path><path d="M199.25,158.92a.47.47,0,0,0,0,.93A.47.47,0,0,0,199.25,158.92Z" style="fill:#570DF8"></path><path d="M156.61,242.62a.47.47,0,0,0,0,.93A.47.47,0,0,0,156.61,242.62Z" style="fill:#570DF8"></path><path d="M271.58,232.15a1.26,1.26,0,0,0,0,2.51A1.26,1.26,0,0,0,271.58,232.15Z" style="fill:#570DF8"></path><path d="M346.89,160a1.25,1.25,0,0,0,0,2.5A1.25,1.25,0,0,0,346.89,160Z" style="fill:#570DF8"></path><path d="M220.45,60.66a1.26,1.26,0,0,0,0,2.51A1.26,1.26,0,0,0,220.45,60.66Z" style="fill:#570DF8"></path><path d="M204,110.58a1.26,1.26,0,0,0,0,2.51A1.26,1.26,0,0,0,204,110.58Z" style="fill:#570DF8"></path><path d="M162.52,238.37a1.26,1.26,0,0,0,0,2.51A1.26,1.26,0,0,0,162.52,238.37Z" style="fill:#570DF8"></path></g></svg>